<?xml version="1.0" encoding="utf-8"?>
<!-- Generator: Adobe Illustrator 16.0.2, SVG Export Plug-In . SVG Version: 6.00 Build 0)  -->
<!DOCTYPE svg PUBLIC "-//W3C//DTD SVG 1.1//EN" "http://www.w3.org/Graphics/SVG/1.1/DTD/svg11.dtd">
<svg version="1.1" id="Layer_1" xmlns="http://www.w3.org/2000/svg" xmlns:xlink="http://www.w3.org/1999/xlink" x="0px" y="0px"
	 width="32px" height="32px" viewBox="0 0 32 32" enable-background="new 0 0 32 32" xml:space="preserve">
<g>
	<polyline fill="none" stroke="#000000" stroke-width="6.3527" stroke-miterlimit="10" points="-63.77,47.558 -3.351,-53.6 
		-0.59,-47.387 12.532,-61.197 47.059,38.239 	"/>
	<polyline fill="none" stroke="#000000" stroke-width="6.3527" stroke-miterlimit="10" points="27.008,-19.925 41.301,-50.355 
		112.77,33.89 	"/>
	<polyline fill="none" stroke="#000000" stroke-width="2.5411" stroke-miterlimit="10" points="-4.043,48.388 -4.043,31.677 
		-4.043,9.925 -4.043,-1.881 -12.673,10.619 -8.354,10.96 -15.78,23.257 -9.912,23.257 -19.924,33.89 -6.459,32.37 	"/>
	<polyline fill="none" stroke="#000000" stroke-width="2.5411" stroke-miterlimit="10" points="-2.058,48.382 -2.058,31.669 
		-2.058,9.918 -2.058,-1.881 5.288,10.613 1.608,10.96 7.938,23.257 2.938,23.257 11.46,33.89 -0.003,32.362 	"/>
</g>
</svg>
