<?xml version="1.0" encoding="utf-8"?>
<!-- Generator: Adobe Illustrator 16.0.2, SVG Export Plug-In . SVG Version: 6.00 Build 0)  -->
<!DOCTYPE svg PUBLIC "-//W3C//DTD SVG 1.1//EN" "http://www.w3.org/Graphics/SVG/1.1/DTD/svg11.dtd">
<svg version="1.1" id="Layer_1" xmlns="http://www.w3.org/2000/svg" xmlns:xlink="http://www.w3.org/1999/xlink" x="0px" y="0px"
	 width="32px" height="32px" viewBox="0 0 32 32" enable-background="new 0 0 32 32" xml:space="preserve">
<path stroke="#000000" stroke-width="0.7034" stroke-miterlimit="10" d="M-12.562,4.431c0.53,1.545,1.971,2.709,3.348,2.709
	c0.263,0,0.519-0.042,0.761-0.125c0.78-0.268,1.376-0.936,1.679-1.881c0.276-0.857,0.266-1.833-0.026-2.683
	c-0.45-1.312-1.496-2.098-2.794-2.098c-0.362,0-0.726,0.063-1.083,0.186c-0.787,0.271-1.415,0.791-1.764,1.469
	C-12.816,2.732-12.859,3.571-12.562,4.431z M-11.565,2.462c0.232-0.449,0.662-0.803,1.207-0.99c0.255-0.086,0.512-0.131,0.764-0.131
	c0.87,0,1.548,0.52,1.861,1.431c0.225,0.65,0.232,1.401,0.021,2.059c-0.118,0.371-0.415,1.03-1.062,1.25
	c-0.991,0.34-2.406-0.663-2.854-1.971C-11.836,3.51-11.814,2.942-11.565,2.462z M-6.741,14.612c0.187,0,0.372-0.032,0.55-0.09
	c0.423-0.144,0.846-0.295,1.269-0.447l0.616-0.218c0.066-0.023,0.133-0.05,0.2-0.073l2.619,15.763
	c0.04,0.242,0.25,0.412,0.485,0.412c0.027,0,0.054-0.004,0.082-0.01c0.27-0.043,0.45-0.295,0.406-0.563l-2.65-15.95
	c0.025-0.011,0.048-0.018,0.073-0.029c0.221-0.083,0.439-0.167,0.661-0.246c0.714-0.263,1.135-1.024,0.982-1.771
	c-0.17-0.823-1.012-1.375-1.834-1.205c-0.136,0.026-0.272,0.053-0.408,0.082l-0.477-2.875c-0.044-0.268-0.296-0.454-0.567-0.403
	c-0.268,0.045-0.45,0.297-0.405,0.565l0.482,2.914c-0.193,0.04-0.39,0.077-0.585,0.118l-0.742,0.165
	c-0.266-0.342-0.535-0.688-0.808-1.024c-0.079-0.095-0.237-0.308-0.422-0.554c-0.672-0.908-0.911-1.205-1.062-1.332
	c-0.419-0.478-1.25-0.805-2.053-0.805c-0.768,0-1.454,0.287-1.993,0.836c-3.917,4.213-3.972,4.407-4.006,4.527l-0.78,2.723
	l-0.751,2.729c-0.208,0.771,0.194,1.568,0.935,1.858c0.179,0.067,0.368,0.103,0.56,0.103c0.635,0,1.216-0.398,1.452-1.012
	l1.767-5.234l0.603-0.53l-1.281,5.319c-0.012,0.051-0.017,0.106-0.011,0.162l0.348,3.613l-2.265,5.623
	c-0.299,0.74,0.003,1.58,0.7,1.961c0.229,0.125,0.486,0.191,0.744,0.191c0.573,0,1.098-0.313,1.375-0.822
	c3.299-6.18,3.308-6.32,3.314-6.494l-0.042-1.417l1.085,1.245l0.306,6.26c0.042,0.811,0.685,1.453,1.497,1.494l0.078,0.002
	c0.84,0,1.53-0.658,1.571-1.496l0.342-7.09c0.022-0.502-0.169-0.992-0.509-1.324c-1.162-1.249-2.432-2.646-2.748-3.039l-0.011-3.217
	c0.014,0.018,0.031,0.04,0.047,0.055C-7.677,14.41-7.215,14.612-6.741,14.612z M-3.083,11.15c0.303-0.065,0.607,0.14,0.669,0.439
	c0.055,0.273-0.098,0.549-0.359,0.645c-0.184,0.069-0.37,0.138-0.555,0.21l-0.201-1.205C-3.379,11.213-3.231,11.181-3.083,11.15z
	 M-9.023,17.374c-0.001,0.247-0.001,0.319,3.025,3.577c0.157,0.153,0.243,0.371,0.231,0.592l-0.342,7.086
	c-0.016,0.313-0.274,0.557-0.585,0.557h-0.032c-0.297-0.014-0.543-0.258-0.559-0.557l-0.312-6.432
	c-0.005-0.111-0.048-0.215-0.122-0.299l-2.105-2.406c-0.095-0.112-0.23-0.17-0.371-0.17c-0.06,0-0.121,0.01-0.18,0.034
	c-0.193,0.074-0.319,0.265-0.312,0.472l0.083,2.686c-0.262,0.576-2.071,3.992-3.199,6.105c-0.146,0.268-0.504,0.377-0.777,0.229
	c-0.257-0.141-0.369-0.447-0.257-0.721l2.31-5.738c0.029-0.074,0.04-0.15,0.033-0.23l-0.349-3.653l1.622-6.751
	c0.05-0.207-0.04-0.424-0.224-0.536c-0.183-0.111-0.419-0.09-0.581,0.051l-1.871,1.646c-0.065,0.058-0.115,0.129-0.144,0.212
	l-1.8,5.34c-0.107,0.284-0.44,0.436-0.73,0.322c-0.264-0.104-0.415-0.4-0.338-0.675l0.749-2.725l0.758-2.649
	c0.332-0.432,2.643-2.953,3.792-4.187c0.346-0.353,0.776-0.53,1.28-0.53c0.644,0,1.173,0.289,1.329,0.485
	c0.028,0.037,0.063,0.069,0.102,0.099c0.142,0.14,0.627,0.796,0.894,1.152c0.195,0.261,0.363,0.487,0.447,0.591
	c0.312,0.385,0.617,0.777,0.921,1.17l0.063,0.083c0.117,0.151,0.311,0.22,0.497,0.181l1.048-0.233
	c0.177-0.04,0.354-0.075,0.533-0.112l0.225,1.354c-0.12,0.045-0.242,0.092-0.363,0.135l-0.621,0.223
	c-0.417,0.146-0.832,0.297-1.25,0.438c-0.246,0.079-0.521,0.023-0.715-0.139c-0.265-0.708-0.708-1.822-0.973-2.103
	c-0.138-0.146-0.354-0.191-0.54-0.117c-0.188,0.074-0.313,0.257-0.31,0.459L-9.023,17.374z M2.841,22.73H0.438
	c-0.273,0-0.494-0.223-0.494-0.492c0-0.275,0.22-0.494,0.494-0.494h2.404c0.271,0,0.494,0.219,0.494,0.494
	C3.335,22.508,3.113,22.73,2.841,22.73z M2.021,25.576c0-0.273,0.221-0.494,0.494-0.494h1.879c0.271,0,0.492,0.221,0.492,0.494
	c0,0.271-0.221,0.494-0.492,0.494H2.515C2.242,26.07,2.021,25.848,2.021,25.576z M17.346,32.67c0-0.27,0.22-0.492,0.492-0.492h2.837
	c0.273,0,0.494,0.223,0.494,0.492c0,0.273-0.221,0.494-0.494,0.494h-2.837C17.565,33.164,17.346,32.943,17.346,32.67z M17.41,25.393
	h-5.076c-0.272,0-0.493-0.221-0.493-0.494c0-0.271,0.22-0.49,0.493-0.49h5.076c0.272,0,0.494,0.219,0.494,0.49
	C17.904,25.172,17.683,25.393,17.41,25.393z M4.839,29.412c0-0.271,0.221-0.492,0.495-0.492h7.858c0.271,0,0.493,0.221,0.493,0.492
	s-0.222,0.49-0.493,0.49H5.333C5.06,29.902,4.839,29.684,4.839,29.412z M32.748,27.576c0.272,0,0.492,0.221,0.492,0.494
	c0,0.271-0.22,0.492-0.492,0.492h-3.447c-0.275,0-0.495-0.221-0.495-0.492c0-0.273,0.22-0.494,0.495-0.494H32.748z M39.971,20.299
	c0.086-0.163,0.075-0.359-0.029-0.511L33.24,9.987h3.512c0.002,0,0.002,0,0.005,0c0.286-0.007,0.497-0.22,0.497-0.493
	c0-0.136-0.053-0.258-0.141-0.348l-6.109-8.943h3.044c0,0,0.003,0,0.005,0c0.286-0.006,0.498-0.218,0.498-0.493
	c0-0.134-0.056-0.258-0.14-0.348l-7.92-11.583c-0.183-0.269-0.628-0.269-0.813,0L17.717-0.568c-0.104,0.15-0.113,0.346-0.029,0.508
	c0.086,0.161,0.254,0.263,0.438,0.263h3.046l-4.533,6.634l-3.484-5.099h2.023c0.002,0,0.004,0,0.004,0
	c0.258-0.015,0.499-0.221,0.499-0.494c0-0.135-0.055-0.257-0.143-0.346L9.668-7.693c-0.183-0.267-0.63-0.267-0.813,0l-5.916,8.66
	C2.837,1.118,2.827,1.312,2.912,1.475c0.086,0.163,0.253,0.264,0.435,0.264h2.024L0.932,8.233c-0.105,0.151-0.116,0.348-0.029,0.51
	c0.084,0.162,0.251,0.263,0.436,0.263h2.365l-4.839,7.085c-0.102,0.151-0.114,0.344-0.029,0.505
	c0.086,0.162,0.254,0.263,0.437,0.263h9.496v3.208c0,0.271,0.222,0.494,0.493,0.494c0.271,0,0.493-0.224,0.493-0.494v-3.208h4.479
	l-2,2.929c-0.105,0.151-0.115,0.348-0.03,0.511c0.086,0.161,0.252,0.263,0.437,0.263h12.951v3.204c0,0.273,0.223,0.494,0.495,0.494
	c0.271,0,0.494-0.221,0.494-0.494v-3.204h12.951C39.716,20.562,39.887,20.46,39.971,20.299z M17.208,12.502l-1.717-2.515h3.438
	L17.208,12.502z M14.992,9.257l-0.173-0.252h0.337l-0.145,0.212C15.004,9.229,15,9.244,14.992,9.257z M0.206,15.873l4.839-7.082
	c0.104-0.152,0.115-0.346,0.03-0.509C4.989,8.119,4.821,8.019,4.637,8.019H2.271l4.44-6.497C6.815,1.371,6.825,1.174,6.74,1.015
	C6.653,0.853,6.487,0.753,6.305,0.753H4.28l4.981-7.293l4.982,7.293H12.22c-0.184,0-0.351,0.1-0.436,0.262
	c-0.086,0.16-0.074,0.356,0.029,0.507l4.23,6.188l-0.214,0.308h-1.942c-0.183,0-0.351,0.101-0.437,0.263
	c-0.085,0.163-0.074,0.357,0.031,0.509l3.132,4.584l-1.01,1.478l-0.697,1.02H0.206z M13.572,19.574l2.003-2.93l0,0l0.05-0.075
	l4.643-6.797c0.104-0.152,0.115-0.348,0.03-0.509C20.213,9.104,20.046,9,19.861,9h-3.508l0.146-0.207V8.791l0.547-0.802l0,0
	l5.465-8.003c0.103-0.148,0.115-0.345,0.031-0.506c-0.086-0.164-0.254-0.266-0.438-0.266h-3.045l7.027-10.284l7.028,10.284h-3.045
	c-0.188,0-0.355,0.102-0.438,0.266c-0.088,0.161-0.072,0.357,0.029,0.506L35.817,9h-3.506c-0.184,0-0.352,0.104-0.437,0.263
	c-0.088,0.161-0.075,0.357,0.029,0.509l6.693,9.802H13.572z"/>
</svg>
