<?xml version="1.0" encoding="utf-8"?>
<!-- Generator: Adobe Illustrator 16.0.2, SVG Export Plug-In . SVG Version: 6.00 Build 0)  -->
<!DOCTYPE svg PUBLIC "-//W3C//DTD SVG 1.1//EN" "http://www.w3.org/Graphics/SVG/1.1/DTD/svg11.dtd">
<svg version="1.1" id="Layer_1" xmlns="http://www.w3.org/2000/svg" xmlns:xlink="http://www.w3.org/1999/xlink" x="0px" y="0px"
	 width="32px" height="32px" viewBox="0 0 32 32" enable-background="new 0 0 32 32" xml:space="preserve">
<path d="M2.134,16.35c0.195,0.568,0.725,0.997,1.232,0.997c0.097,0,0.191-0.016,0.28-0.046c0.288-0.099,0.507-0.345,0.618-0.692
	c0.102-0.315,0.098-0.675-0.01-0.987c-0.166-0.483-0.55-0.772-1.028-0.772c-0.133,0-0.267,0.023-0.398,0.068
	c-0.29,0.1-0.521,0.292-0.649,0.541C2.041,15.725,2.025,16.033,2.134,16.35z M2.501,15.625c0.085-0.166,0.244-0.295,0.444-0.364
	c0.094-0.032,0.188-0.048,0.281-0.048c0.32,0,0.57,0.191,0.685,0.527c0.083,0.239,0.085,0.516,0.008,0.758
	c-0.043,0.137-0.153,0.379-0.391,0.46c-0.365,0.125-0.885-0.244-1.05-0.726C2.401,16.011,2.409,15.802,2.501,15.625z M4.277,20.097
	c0.068,0,0.137-0.012,0.202-0.033c0.156-0.053,0.312-0.108,0.467-0.164l0.227-0.08c0.024-0.009,0.049-0.019,0.074-0.027l0.964,5.802
	c0.015,0.089,0.092,0.151,0.178,0.151c0.01,0,0.02-0.001,0.03-0.003c0.099-0.017,0.166-0.109,0.149-0.208l-0.976-5.87
	c0.009-0.004,0.018-0.007,0.027-0.011c0.081-0.03,0.162-0.062,0.243-0.091c0.263-0.097,0.418-0.377,0.362-0.651
	c-0.063-0.303-0.373-0.506-0.675-0.443c-0.05,0.01-0.1,0.02-0.15,0.03l-0.176-1.059c-0.016-0.099-0.109-0.167-0.208-0.148
	C4.917,17.308,4.85,17.4,4.866,17.499l0.177,1.072C4.972,18.586,4.9,18.6,4.828,18.615l-0.273,0.061
	c-0.098-0.126-0.197-0.253-0.297-0.377c-0.029-0.035-0.087-0.113-0.155-0.204c-0.248-0.334-0.335-0.443-0.391-0.49
	c-0.154-0.176-0.46-0.296-0.755-0.296c-0.283,0-0.535,0.105-0.733,0.308c-1.441,1.551-1.462,1.622-1.475,1.666l-0.287,1.002
	l-0.276,1.005c-0.077,0.284,0.071,0.577,0.344,0.684c0.066,0.025,0.136,0.038,0.206,0.038c0.234,0,0.448-0.146,0.535-0.372
	l0.65-1.927l0.222-0.195L1.67,21.475c-0.004,0.019-0.006,0.039-0.004,0.06l0.128,1.33l-0.833,2.069
	c-0.11,0.272,0.001,0.582,0.258,0.722c0.084,0.046,0.179,0.07,0.273,0.07c0.211,0,0.404-0.115,0.506-0.303
	c1.214-2.274,1.217-2.326,1.22-2.39l-0.015-0.521l0.399,0.458l0.112,2.304c0.016,0.299,0.252,0.535,0.551,0.55l0.029,0.001
	c0.309,0,0.563-0.242,0.578-0.551l0.126-2.609c0.008-0.185-0.063-0.365-0.188-0.487c-0.428-0.46-0.895-0.974-1.011-1.118
	l-0.004-1.185c0.005,0.007,0.011,0.015,0.018,0.021C3.932,20.022,4.102,20.097,4.277,20.097z M5.623,18.822
	c0.111-0.023,0.223,0.052,0.246,0.162c0.021,0.101-0.036,0.202-0.132,0.237c-0.068,0.025-0.136,0.051-0.205,0.077l-0.074-0.443
	C5.514,18.846,5.568,18.834,5.623,18.822z M3.437,21.113c0,0.091,0,0.117,1.113,1.316c0.058,0.057,0.089,0.137,0.085,0.218
	l-0.126,2.608c-0.006,0.115-0.101,0.205-0.215,0.205H4.282c-0.109-0.005-0.2-0.096-0.206-0.205l-0.115-2.367
	c-0.002-0.041-0.018-0.079-0.045-0.11l-0.774-0.886c-0.035-0.041-0.085-0.063-0.137-0.063c-0.022,0-0.044,0.004-0.066,0.013
	c-0.071,0.027-0.117,0.098-0.115,0.174l0.03,0.988c-0.096,0.212-0.762,1.47-1.177,2.247c-0.054,0.099-0.186,0.139-0.286,0.084
	c-0.095-0.051-0.136-0.165-0.095-0.266l0.85-2.111c0.011-0.027,0.015-0.056,0.012-0.085l-0.128-1.345l0.597-2.484
	c0.019-0.076-0.015-0.156-0.082-0.197s-0.154-0.033-0.214,0.019l-0.688,0.605C1.62,19.493,1.602,19.52,1.591,19.55l-0.663,1.966
	c-0.04,0.104-0.162,0.16-0.269,0.118c-0.098-0.038-0.153-0.147-0.125-0.248l0.276-1.003l0.279-0.975
	c0.122-0.159,0.973-1.087,1.396-1.541c0.127-0.13,0.286-0.195,0.471-0.195c0.237,0,0.432,0.106,0.489,0.179
	c0.01,0.014,0.023,0.025,0.038,0.036c0.052,0.052,0.23,0.293,0.329,0.424c0.072,0.097,0.134,0.18,0.165,0.218
	c0.115,0.142,0.227,0.286,0.339,0.431l0.023,0.03c0.043,0.056,0.114,0.081,0.183,0.066l0.386-0.086
	c0.065-0.015,0.13-0.027,0.196-0.041l0.083,0.498c-0.044,0.017-0.089,0.034-0.134,0.05l-0.229,0.082
	c-0.153,0.054-0.306,0.109-0.46,0.161c-0.09,0.029-0.191,0.009-0.263-0.051c-0.097-0.261-0.26-0.671-0.358-0.774
	c-0.051-0.054-0.13-0.07-0.199-0.043s-0.115,0.095-0.114,0.169L3.437,21.113z M7.803,23.085H6.918c-0.101,0-0.182-0.082-0.182-0.182
	c0-0.102,0.081-0.182,0.182-0.182h0.885c0.1,0,0.182,0.08,0.182,0.182C7.985,23.003,7.903,23.085,7.803,23.085z M7.501,24.132
	c0-0.101,0.081-0.182,0.182-0.182h0.691c0.1,0,0.181,0.081,0.181,0.182s-0.081,0.182-0.181,0.182H7.683
	C7.583,24.313,7.501,24.232,7.501,24.132z M13.142,26.743c0-0.1,0.081-0.182,0.181-0.182h1.044c0.1,0,0.182,0.082,0.182,0.182
	c0,0.101-0.082,0.182-0.182,0.182h-1.044C13.223,26.925,13.142,26.844,13.142,26.743z M13.166,24.064h-1.868
	c-0.101,0-0.182-0.081-0.182-0.182c0-0.1,0.081-0.181,0.182-0.181h1.868c0.1,0,0.182,0.081,0.182,0.181
	C13.347,23.983,13.266,24.064,13.166,24.064z M8.539,25.544c0-0.101,0.082-0.182,0.182-0.182h2.893c0.1,0,0.182,0.081,0.182,0.182
	c0,0.1-0.082,0.181-0.182,0.181H8.72C8.62,25.725,8.539,25.644,8.539,25.544z M18.811,24.868c0.101,0,0.182,0.081,0.182,0.182
	s-0.081,0.182-0.182,0.182h-1.27c-0.101,0-0.182-0.081-0.182-0.182s0.081-0.182,0.182-0.182H18.811z M24.855,24.393
	c0.1,0,0.182,0.081,0.182,0.182c0,0.1-0.082,0.181-0.182,0.181h-1.529c-0.1,0-0.181-0.081-0.181-0.181
	c0-0.101,0.081-0.182,0.181-0.182H24.855z M29.184,22.727h-1.271c-0.1,0-0.181-0.081-0.181-0.182c0-0.1,0.081-0.182,0.181-0.182
	h1.271c0.1,0,0.182,0.082,0.182,0.182C29.365,22.646,29.283,22.727,29.184,22.727z M28.549,25.574c0.1,0,0.182,0.081,0.182,0.181
	c0,0.101-0.082,0.182-0.182,0.182h-0.636c-0.1,0-0.181-0.081-0.181-0.182c0-0.1,0.081-0.181,0.181-0.181H28.549z M20.284,26.249
	c0-0.101,0.082-0.182,0.182-0.182h1.907c0.1,0,0.182,0.081,0.182,0.182s-0.082,0.182-0.182,0.182h-1.907
	C20.366,26.431,20.284,26.35,20.284,26.249z M29.99,23.48c0-0.101,0.081-0.182,0.182-0.182h1.481c0.101,0,0.182,0.081,0.182,0.182
	c0,0.1-0.081,0.182-0.182,0.182h-1.481C30.071,23.662,29.99,23.58,29.99,23.48z M21.469,22.189c0.031-0.06,0.027-0.132-0.011-0.188
	l-2.466-3.607h1.292c0.001,0,0.001,0,0.002,0c0.104-0.003,0.183-0.081,0.183-0.182c0-0.05-0.02-0.095-0.052-0.128l-2.249-3.292
	h1.121c0,0,0.001,0,0.002,0c0.105-0.002,0.183-0.081,0.183-0.182c0-0.049-0.02-0.095-0.052-0.128l-2.914-4.263
	c-0.068-0.099-0.232-0.099-0.3,0l-2.93,4.289c-0.038,0.055-0.042,0.127-0.011,0.187s0.093,0.097,0.161,0.097h1.121l-1.668,2.442
	l-1.282-1.877h0.745c0.001,0,0.001,0,0.001,0c0.095-0.005,0.184-0.081,0.184-0.182c0-0.05-0.02-0.095-0.052-0.127l-2.161-3.162
	c-0.067-0.099-0.232-0.099-0.299,0l-2.177,3.187c-0.038,0.056-0.042,0.127-0.01,0.187c0.032,0.06,0.093,0.097,0.16,0.097h0.745
	l-1.634,2.391c-0.039,0.056-0.042,0.128-0.011,0.188c0.031,0.06,0.093,0.097,0.161,0.097h0.871L6.34,20.641
	c-0.038,0.056-0.042,0.127-0.011,0.187c0.032,0.06,0.094,0.097,0.161,0.097h3.495v1.181c0,0.1,0.082,0.182,0.181,0.182
	c0.1,0,0.182-0.082,0.182-0.182v-1.181h1.648l-0.736,1.078c-0.039,0.056-0.042,0.128-0.011,0.188
	c0.032,0.06,0.093,0.097,0.161,0.097h4.767v1.18c0,0.101,0.082,0.182,0.182,0.182s0.182-0.081,0.182-0.182v-1.18h4.768
	C21.375,22.286,21.438,22.249,21.469,22.189z M13.091,19.32l-0.632-0.926h1.265L13.091,19.32z M12.275,18.126l-0.063-0.093h0.124
	l-0.053,0.078C12.28,18.115,12.278,18.121,12.275,18.126z M6.833,20.561l1.781-2.606c0.038-0.056,0.042-0.127,0.011-0.188
	c-0.032-0.06-0.093-0.097-0.161-0.097H7.594l1.634-2.391c0.038-0.056,0.042-0.128,0.01-0.187c-0.032-0.06-0.093-0.097-0.16-0.097
	H8.333l1.833-2.684L12,14.996h-0.745c-0.067,0-0.129,0.037-0.16,0.097c-0.032,0.059-0.027,0.131,0.011,0.187l1.557,2.277
	l-0.079,0.113h-0.715c-0.067,0-0.129,0.037-0.161,0.097c-0.031,0.061-0.027,0.132,0.011,0.188l1.153,1.688L12.5,20.186l-0.256,0.375
	H6.833z M11.753,21.923l0.737-1.078l0,0l0.019-0.027l1.709-2.502c0.039-0.056,0.042-0.128,0.011-0.188
	c-0.031-0.059-0.093-0.097-0.161-0.097h-1.291l0.053-0.076v-0.001l0.202-0.295l0,0l2.012-2.945c0.038-0.055,0.042-0.127,0.011-0.187
	c-0.031-0.06-0.093-0.097-0.161-0.097h-1.121l2.586-3.785l2.587,3.785h-1.121c-0.068,0-0.13,0.037-0.161,0.097
	c-0.032,0.06-0.026,0.132,0.011,0.187l2.267,3.317h-1.291c-0.067,0-0.129,0.038-0.16,0.097c-0.032,0.06-0.027,0.132,0.011,0.188
	l2.464,3.607H11.753z M25.774,22.522c0.101,0,0.182-0.081,0.182-0.182v-1.078h3.22c0.068,0,0.13-0.038,0.161-0.097
	c0.031-0.06,0.027-0.132-0.011-0.188l-1.633-2.391h0.779c0.001,0,0.002,0,0.003,0c0.096,0.006,0.183-0.08,0.183-0.181
	c0-0.05-0.021-0.096-0.053-0.128l-1.48-2.166h0.663c0.001,0,0.002,0,0.003,0c0.104,0.003,0.183-0.08,0.183-0.182
	c0-0.049-0.021-0.095-0.053-0.128l-1.996-2.921c-0.034-0.05-0.09-0.08-0.15-0.08c-0.06,0-0.116,0.03-0.149,0.08l-2.014,2.947
	c-0.039,0.056-0.043,0.128-0.011,0.188c0.031,0.06,0.093,0.097,0.16,0.097h0.663l-1.497,2.191c-0.037,0.056-0.041,0.128-0.011,0.187
	c0.031,0.06,0.094,0.097,0.161,0.097h0.779l-1.633,2.391c-0.038,0.056-0.042,0.128-0.011,0.188c0.031,0.059,0.093,0.097,0.16,0.097
	h3.221v1.078C25.594,22.441,25.675,22.522,25.774,22.522z M24.351,18.509c0.038-0.056,0.042-0.127,0.011-0.187
	s-0.094-0.097-0.16-0.097h-0.78l1.497-2.191c0.037-0.056,0.042-0.127,0.011-0.187c-0.032-0.061-0.094-0.098-0.161-0.098h-0.663
	l1.67-2.444l1.671,2.444h-0.663c-0.068,0-0.13,0.037-0.161,0.098c-0.031,0.06-0.026,0.131,0.011,0.187l1.497,2.191H27.35
	c-0.067,0-0.13,0.037-0.161,0.097s-0.026,0.131,0.011,0.187l1.633,2.391h-6.115L24.351,18.509z"/>
</svg>
